<?xml version="1.0" encoding="utf-8"?>
<!-- Svg Vector Icons : http://www.onlinewebfonts.com/icon -->
<!DOCTYPE svg PUBLIC "-//W3C//DTD SVG 1.1//EN" "http://www.w3.org/Graphics/SVG/1.1/DTD/svg11.dtd">
<svg version="1.1" xmlns="http://www.w3.org/2000/svg" xmlns:xlink="http://www.w3.org/1999/xlink" x="0px" y="0px" viewBox="0 0 1000 1000" enable-background="new 0 0 1000 1000" xml:space="preserve">
<metadata> Svg Vector Icons : http://www.onlinewebfonts.com/icon </metadata>
<g><path d="M625.7,10c-0.5,9.8-4.7,15.9-4.1,26.8c-7.4-8.4-15.5-16.2-22.7-24.8C600.8,4.9,620.6,7.5,625.7,10L625.7,10z"/><path d="M10.8,30.6c2.1,0,4.1,0,6.2,0c0.9,4.3-1.4,5.5-2.1,8.3C11.3,38.4,10.3,35.4,10.8,30.6L10.8,30.6z"/><path d="M21.2,98.7c-3.6,4-2.4,12.7-10.3,12.4C9.3,102.1,15.3,100.4,21.2,98.7z"/><path d="M12.9,121.4c4-0.8,3,9.4-2.1,6.2c0-1.4,0-2.7,0-4.1C12.6,123.9,12.8,122.7,12.9,121.4L12.9,121.4z"/><path d="M12.9,298.9c3.6,0.5,4.7,3.6,4.1,8.3c-2.4-0.3-3.7,0.5-4.1,2.1C8.1,308.6,11.7,300.1,12.9,298.9z"/><path d="M757.7,340.1c-0.3,5.1-7,0.6-8.3,0C751.3,333.2,754.1,338.3,757.7,340.1L757.7,340.1z"/><path d="M23.2,360.8c-3.1,2.4-5,6-10.3,6.2C12.6,361.1,18,361,23.2,360.8z"/><path d="M12.9,400c8.7,2.7,0,6.8,0,12.4C7.1,410.3,13.5,403.6,12.9,400z"/><path d="M957.9,418.5c0-1.4,0-2.8,0-4.1c1.4,0,2.8,0,4.1,0c0,1.4,0,2.8,0,4.1C960.6,418.5,959.2,418.5,957.9,418.5z"/><path d="M12.9,453.6c3.3-0.6,3.6,2,6.2,2.1c-0.4,1.7-2.1,2.1-2.1,4.1c-1.4,0-2.8,0-4.1,0C12.9,457.7,12.9,455.7,12.9,453.6L12.9,453.6z"/><path d="M10.8,488.7c2.8,1.4,3.8,4.4,4.1,8.3C8.8,499,11.3,492.3,10.8,488.7z"/><path d="M10.8,519.6c3.5,3.6,8.1-3,8.3,6.2c-3.3-0.2-7.9,1-8.3-2.1C10.8,522.4,10.8,521,10.8,519.6L10.8,519.6z"/><path d="M466.8,560.9c3.8-6.3,6.3,5.9,6.2,10.3C468.2,570.5,471,562.2,466.8,560.9z"/><path d="M506,591.8c2.4,3.1,6,5,6.2,10.3C505.8,603.1,505.6,597.7,506,591.8z"/><path d="M25.3,738.3c3,1.8,8,1.6,6.2,8.3c-2.1,0-4.1,0-6.2,0C25.3,743.8,25.3,741.1,25.3,738.3z"/><path d="M514.3,3.8c7.8,17.7,38.1,3.5,51.6,12.4l-3.1,2.4l1,3.8c-4.7-0.6-7.8,0.5-8.3,4.1c10.6,3.9,20,1.1,28.9-2.1c9.9,7.3,18,16.4,18.6,33c12.6-3.2,26.4-5.2,43.3-4.1c8.3-9,8-26.5,6.2-35.1c40.2-4.7,84.7-0.7,121.7,4.1l-1,3.8l3.1,2.4c-2,2.8-5.5,4.1-8.3,6.2l-2.4-3.1l-3.8,1c-3.3-1.9-7.9-3.1-8.3,0c2,0.1,1.6,2.5,2.1,4.1c1.4,0,2.8,0,4.1,0c2.1-4.1,4.5-1,4.5-1l3.8-1c1.5,10.3,9.6-2.6,10.3-6.2l3.1-2.4l-1-3.8c5.8-1.7,5.3,2.9,10.3,2.1l-1,3.8l3.1,2.4c-7.8,8.6,16.1,11.4,18.6,4.1c-5.3-0.2-9.8-1.2-12.4-4.1l3.1-2.4l-1-3.8c11.1,2,23.6,2.6,37.1,2.1c0.4-1.7,2.1-2.1,2.1-4.1l3.1,1l3.1-1c2.8,2.1,6.2,3.4,8.3,6.2c11.8,2.2,12.1-7.2,20.6-8.3c10.9,10.4,37.1,18.4,49.5,4.1c1.3,11.1,16.9,0.9,28.9,4.1c3.1,13,20.1,14.1,28.9,20.6c3.4,2.5,2.6,6.8,6.2,6.2c-4.8,15.2,1.2,41.1-8.3,51.6c16.2,77,6.8,155.1,6.2,241.4c-10.8-0.5-20.6,0-28.9,2.1c-0.2,11.9,5.7,17.7,8.2,26.8c-27,11.2-14,50.5,6.2,59.8c-2.4,19.6,1.6,32.8,10.3,41.3c-6.3,10.6-10,27.5-4.1,39.2c-7.4,9.1-6.4,26.6-6.2,43.3c-6.6,2.7-12.6-11-14.4,0c-0.6,15.1,24.9,7.8,31,10.3c-1.4,132,2.8,269.6-2.1,398.2c-26.7-12.4-74.9-39.8-107.3-14.4c5.1,1.7,11,2.7,18.6,2.1l-1,3.1l3.1,1c-2.9,1.3-0.3,7.9-4.1,8.3c-6.4,1.5-4-5.7-10.3-4.1c-19.1,18.3-61.1,11.8-82.5,0c-16.7,6.4-40.3,4-49.5-8.3c-7.9,3.1-14.6,7.4-20.6,12.4c-19.9-2-32.2,3.6-47.4,6.2c-3.5-2.2-2.6-12.1-8.3-6.2l-2.4-3.1l-3.8,1c-4.4-4.9-17-0.6-18.6,4.1l-3.8-1l-2.4,3.1c-28.3,5.4-70.8-3.4-92.8,8.3l-3.1-1l-3.1-1c-5.8-3.1-8.5,0.7-16.5-2.1c-0.1,3.5,1.5,5.3,4.1,6.2l-1,3.8l3.1,2.4c-11.6,8.1-19.2-5.5-24.8-10.3c-6.7,0.2-1.5,12.3-10.3,10.3c-8.9-12.8-35.5-15.4-55.7-10.3c-7,4.7,9.4,8,2.1,12.4c-10.4-2.2-11.8,4.7-20.6,4.1c-5.4-15.9-18-24.6-24.8-39.2l-2.1-1l-2.1,1c0.2-2.9,0.3-5.8-2.1-6.2c0.4,1.7-0.8,1.9-2.1,2.1c0,1.4,0,2.8,0,4.1l-1,2.1l1,2.1c-8.3,2-18.1,2.5-28.9,2.1c-6.6-0.3-6.1-7.6-12.4-8.2c-6.5-0.3-0.9,11.5-10.3,8.2c-9.9-1.8-8.6-14.8-16.5-18.6c-9.3-1-5.8,10.7-10.3,14.4c-2.1-4.7-7.1-6.7-6.2-14.4c-9.2,0.4-9.2,10-14.4,14.4c-2-4.2-7.9-4.5-14.4-4.1l-3.1-1l-1,3.1c-4.2-1.2-4-6.2-8.3-2.1c-5.7-0.9-1.9,7.7-6.2,8.2c-0.7-10.2-5.4,1.7-10.3,0c-1.2-6.4-0.5-14.6-8.3-14.4c-3.8,2.4-1.4,10.9-10.3,8.3c-4.3-0.6-0.5-9.1-6.2-8.3c-2.9,6-8.7,9.2-18.6,8.3c-3.1,2.4-2.4,8.6-8.3,8.3c-0.3-9.3,0.7-20-8.3-20.6c-10.8-3.2-1.3,13.8-10.3,12.4c-9.4,3.2,1.1-13.5-8.3-10.3c-8.1-0.6-0.6,14.5-6.2,16.5c-0.8-6.1-9.7-4-12.4-8.2l1-3.1l-3.1-1c0.4-1.7,2.1-2.1,2.1-4.1c-5.1-0.3-10-0.4-10.3,4.1l-3.1,1l1,3.1c-16.4,1.9-27.4-1.5-37.1-6.2c-2.9,5.9,5.6,10.5,0,12.4c-7.7-9.5-22.5-0.3-30.9,2.1c0.6-5.4,0.7-10.3-6.2-8.3l-3.1-1l-1,3.1c-2-0.1-1.6-2.5-2.1-4.1c-11-3.3-10.7,15.3-16.5,10.3c-3.9-3-0.2-13.5-4.1-16.5c-8.2-1.4-22.8,3.6-24.8-4.1c18.4-55.3-7.2-128.8,10.3-189.8c7.4-1.7,10,4.7,14.4,0c-1.6-39.4,4.2-71.4,4.1-109.4c-8.1-0.1-15.5-1-20.6-4.1c-3.6-35.3-8.6-87.6,0-121.7c6.3-1.5,4,5.7,10.3,4.1c0-1.4,0-2.8,0-4.1l2.8-2.5l-0.7-3.7c5.3-2.2,7.2,8.9,10.3,2.1c-3.6-11.4-0.5-28.3,0-39.2c-22.3-9.2-26.2-52.3-12.4-74.3c-7.6-22.7-10.9-49.6-14.4-76.3c-3.3,1.1-11.4,0.7-10.3-12.4c5-0.8,4.5,3.8,10.3,2.1c-5.9-14.9,1.5-42.1-2.1-57.8c-0.1-0.3-3.8,0.2-4.1,0l-1-3.1l-3.1-1c0-0.7,0-1.4,0-2.1l3.1-1l1-3.1c1.8,13.5,9,1.4,0-2.1l-1-3.1l-3.1,1c-1.2-6.6,3.9-6.4,0-10.3c3.7-0.3,4.4,2.5,8.3,2.1c2.9-48.7,7.1-96,6.2-148.5c-0.8-4-8-1.6-6.2-8.3c1-18.3,4.6-33.9,6.2-51.6c17.6,17,54,8.6,68.1-6.2c1.2,5,1.8,10.6,8.3,10.3c12-0.3,24.2-0.8,31,4.1c3.1-2.4,2.4-8.6,8.2-8.2c3.6,1.2-0.2,9.8,4.1,10.3c4.7-8.6,19.5-11.2,20.6,2.1l2.1,6.2c-0.7,0-1.4,0-2.1,0c0,2.1,0,4.1,0,6.2c2.1,0,4.1,0,6.2,0c0.2-2.9,0.3-5.8-2.1-6.2l1-3.8l-3.1-2.4c11.4-15.2,43.9,3,57.8-8.3c9.7,6.7,29.5,8.6,35.1-2.1c17.2,29.4,77.3,3.6,107.3,20.6c4.8-2.1,2.5-11.2,6.2-14.4c7.5,0.6,13.4-0.3,18.6-2.1c2.1-2.7,3.4-6.2,6.2-8.3l2.4,3.1l3.8-1c6.6,7.2,0.8-15.6,8.3-14.4c7.8,1.3,21.8,4.5,28.9,0c-0.6-3.3,1.9-3.6,2.1-6.2c0.7,0,1.4,0,2.1,0c0,0.7,0,1.4,0,2.1c11.4,3,22.5,6.4,35.1,8.3l-1,3.8l3.1,2.4c-7.2,6.7,9.5,9.5,12.4,6.2c0.1-3.5-1.5-5.3-4.1-6.2l1-3.1l-1-3.1c6.3-4,16.8-3.8,20.6-10.3C512.9,3.8,513.6,3.8,514.3,3.8L514.3,3.8z M427.6,26.5c2.1,0,4.1,0,6.2,0c0.1-3.5-1.6-5.3-4.1-6.2C429.8,23.2,428.7,24.9,427.6,26.5L427.6,26.5z M460.6,24.4c2.1,0,2.5,1.7,4.1,2.1c-0.2-3.2,0.3-7.2-4.1-6.2C460.6,21.7,460.6,23.1,460.6,24.4L460.6,24.4z M534.9,28.6c5-5-6.8-5.3-6.2-2.1C528.7,26.4,535.7,27.8,534.9,28.6z M677.2,30.6c1.4,0,2.8,0,4.1,0c0-1.4,0-2.8,0-4.1c-1.4,0-2.8,0-4.1,0C677.2,27.9,677.2,29.3,677.2,30.6z M111.9,43c0.1-6.3-7.2-5.1-12.4-6.2C98.4,44.2,105.7,43.1,111.9,43z M852.6,43c2.1,0,4.1,0,6.2,0c0-2.1,0-4.1,0-6.2c-2.1,0-4.1,0-6.2,0C852.6,38.9,852.6,41,852.6,43z M74.8,45.1c2.1,0,4.1,0,6.2,0c0-2.1,0-4.1,0-6.2c-2.1,0-4.1,0-6.2,0C74.8,41,74.8,43,74.8,45.1z M204.8,49.2c2.1,0,4.1,0,6.2,0c0-2.1,0-4.1,0-6.2c-2.1,0-4.1,0-6.2,0C204.8,45.1,204.8,47.1,204.8,49.2z M394.6,55.4c0.3-2.4,3.7-4.7,0-6.2C394.3,51.7,390.9,53.9,394.6,55.4z M303.8,253.5c-6-1.8-2.3-3.1-2.1-8.2c-12.3-9.8-29.7-21.3-47.4-33c-24.6-16.3-40.9-36.3-76.3-30.9c-21,3.2-34,14.6-57.8,18.6c16.6,24.9,39,45.2,59.8,66c60.8,60.8,119,128,179.5,191.9c6.1,2,10.2,2.9,12.4,4.1l-1,3.1l3.1-1c-1.4,11.7,9.9,15.8,18.6,24.8c6.7,7,11.2,17.2,16.5,22.7c4.4,4.6,19.8,9.3,18.6,20.6c13.9,3.6,19.1,18.9,28.9,28.9c5.7,5.8,15.2,9,20.6,14.4c1.5,1.6,1.2,7.2,2.1,8.2c2.4,2.9,5.9,3.1,8.3,6.2c7.3,9.6,17.4,18.8,26.8,28.9c6.5,3.4,5.8-10.3,8.3-4.1c6.3,2.8,0.7,5.7,2.1,14.4c6.7,5.7,10.6,14.1,18.6,18.6c-0.3-2.4,0.5-3.7,2.1-4.1c3.4,7.6,7.3,14.7,14.4,18.6c-0.6-6,0.5-7.1,4.1-4.1c4.3,8-3.1,3.4-2.1,12.4c26.8,31.8,63.9,63.1,92.8,97c9.9,11.6,22.7,34.8,37.1,43.3c27.2,16,89.5,11.1,125.9,10.3c-0.3-4.4,3.4-2.4,6.2-6.2c12.6-17,22.3-53,33-86.7c10.2-32,23.1-56.7,20.6-86.7c-0.2-2.6-2.9-10.6-4.1-12.4c-0.7-1-17.4-10.8-22.7-14.4c-26-17.9-53.4-35.7-82.5-51.6l1-3.1l-3.1,1c-0.5-0.7,0.6-3.7,0-4.1C633.8,464.5,496.1,379,363.7,286.5c-4.1,0-8.3,0-12.4,0c-5.3-15.8-20.2-16.3-28.9-16.5c10.1-7.4-9.9-12.9-16.5-16.5l-1-3.1L303.8,253.5L303.8,253.5z M759.8,352.5c0.7,2.7,3.6,3.2,4.1,6.2c10.6-3.5,9.4,5.5,20.6,10.3c4.7-46,21.5-100.2,20.6-138.2c0.6,4.2-6-0.4-6.2-2.1c4.1,0.7,6.5-0.4,6.2-4.1c-19.2-16.5-37.8-38.3-66-39.2c-21.5-0.7-49,12.3-74.3,18.6c-19.5,4.8-38.4,9.7-55.7,14.4c-5.7,1.6-14.8-1.4-16.5,6.2c55.2,42.9,110.7,87.8,165.1,125.9l-1,3.1L759.8,352.5L759.8,352.5z M229.5,833.2c52.2,4,107.3-29.6,163-41.3c-2.2-4.3-5.2-11.3-8.3-14.4c1,1.1-1.4,2.6-2.1,2.1c-15.4-12-29-31.7-45.4-47.5c-44.3-42.6-94.7-90.3-140.3-132c-15.7,37.3-32.1,77.6-49.5,119.7c-5.4,13-16.4,30-14.4,41.3c2.4,13.5,51.2,41.9,66,55.7c8.2,7.7,16.8,13.5,28.9,16.5l1,3.1L229.5,833.2L229.5,833.2z"/><path d="M673.5,972.5l3.8-1c1.4,7.6-3.3,9.1-10.3,8.3c-0.3-5.1,1.1-8.6,4.1-10.3L673.5,972.5L673.5,972.5z"/><path d="M650.1,976.6l2.4-3.1c5.1,2.7,8.6-6.1,10.3,0c0,9.7-6.8,12.5-14.4,14.4l0.7-3.7l-2.8-2.5c0-2.1,0-4.1,0-6.2L650.1,976.6L650.1,976.6z"/><path d="M230.6,828.1l-1,1c0.2-3.9,8,1.3,8.3,4.1c-3-1.1-5.2-3-8.3-4.1L230.6,828.1z"/><path d="M12.9,224.6c-2.3-0.4-1.1-2.1,0-2.1c0.4-1.7-0.8-1.9-2.1-2.1c2-6.8,4.1,2.3,6.2,2.1C16.3,225.8,13.4,220.7,12.9,224.6L12.9,224.6z"/><path d="M13.9,77.1c0.6-9.7-0.7-19.2-1-28.9L13.9,77.1z"/><path d="M13.9,80c-0.1,0-0.1,0-0.2,0c-1.6-0.1-2.8-1.5-2.7-3.1c0.4-6.1-0.1-12.3-0.5-18.3c-0.2-3.4-0.5-6.8-0.6-10.3c0-1.6,1.2-2.9,2.8-3c1.6-0.1,2.9,1.2,3,2.8c0.1,3.3,0.3,6.8,0.6,10.1c0.4,6.2,0.9,12.6,0.5,19.1C16.7,78.8,15.5,80,13.9,80L13.9,80z"/><path d="M12.9,289.6c0.4-0.4,1-0.9,1.5-1.4c1.6-4.3-0.8-8.7-0.5-13.1L12.9,289.6z"/><path d="M12.9,292.2c-0.6,0-1.3-0.2-1.8-0.7c-1.1-1-1.1-2.6-0.1-3.7c0.4-0.4,0.8-0.8,1.2-1.1c0.5-1.7,0.1-3.6-0.3-5.8c-0.3-1.9-0.7-3.9-0.5-6c0.1-1.4,1.4-2.5,2.8-2.4c1.4,0.1,2.5,1.4,2.4,2.8c-0.1,1.5,0.2,3,0.5,4.7c0.5,2.8,1.1,5.9-0.2,9.1l-0.2,0.6l-0.5,0.4c-0.5,0.4-0.9,0.8-1.3,1.1C14.3,291.9,13.6,292.2,12.9,292.2L12.9,292.2z"/><path d="M17,341.2c0-2.3-1-2.6-2.1-3.1L17,341.2z"/><path d="M17,343.4c-1.2,0-2.2-1-2.2-2.2c0-0.6-0.1-0.8-0.1-0.8c-0.1,0-0.3-0.2-0.6-0.2l1.7-4.1c1.2,0.5,3.3,1.4,3.4,5.1C19.3,342.3,18.3,343.4,17,343.4C17.1,343.4,17,343.4,17,343.4L17,343.4z"/><path d="M15,384.5c-0.4-2.1-0.8-4.1-1-6.2L15,384.5z"/><path d="M15,387.3c-1.4,0-2.6-1-2.8-2.3l-0.3-1.5c-0.3-1.6-0.6-3.2-0.8-4.9c-0.2-1.6,1-3,2.5-3.1c1.6-0.2,3,1,3.1,2.5c0.2,1.5,0.4,2.9,0.7,4.5l0.3,1.5c0.3,1.6-0.8,3-2.3,3.3C15.3,387.3,15.1,387.3,15,387.3L15,387.3z"/><path d="M469.9,986.9c2.1,0,4.1,0,6.2,0H469.9z"/><path d="M476.1,990.1h-6.2c-1.8,0-3.2-1.4-3.2-3.2s1.4-3.2,3.2-3.2h6.2c1.8,0,3.2,1.4,3.2,3.2S477.9,990.1,476.1,990.1z"/><path d="M562.7,18.6c1.4,0.4,2.8,0.5,4.1,0.7L562.7,18.6z"/><path d="M566.9,22.5c-0.1,0-0.2,0-0.4,0c-1.6-0.2-3.1-0.4-4.6-0.8c-1.7-0.5-2.7-2.2-2.2-3.9c0.5-1.7,2.2-2.7,3.9-2.2c1.1,0.3,2.2,0.4,3.6,0.6c1.7,0.2,3,1.8,2.8,3.5C569.8,21.3,568.5,22.5,566.9,22.5L566.9,22.5z"/><path d="M773.2,26.2c2.8-0.7,5.5-0.5,8.3,0H773.2z"/><path d="M773.2,29.4c-1.4,0-2.7-0.9-3.1-2.4c-0.5-1.7,0.6-3.5,2.3-3.9c3.5-0.9,6.8-0.5,9.6-0.1c1.7,0.3,2.9,2,2.6,3.7c-0.3,1.7-2,2.9-3.7,2.6c-2.2-0.4-4.6-0.7-6.9-0.1C773.7,29.3,773.5,29.4,773.2,29.4L773.2,29.4z"/><path d="M843.3,23.4c-0.1-3.4-1-6.9-1-10.3L843.3,23.4z"/><path d="M843.3,26.1c-1.4,0-2.6-1.1-2.7-2.6c-0.1-1.5-0.3-2.9-0.5-4.5c-0.3-1.9-0.5-3.9-0.6-5.9c0-1.5,1.2-2.7,2.7-2.7c0,0,0,0,0,0c1.5,0,2.7,1.2,2.7,2.7c0,1.7,0.2,3.4,0.5,5.2c0.2,1.6,0.5,3.3,0.5,5c0.1,1.5-1.1,2.7-2.6,2.8C843.4,26.1,843.4,26.1,843.3,26.1L843.3,26.1z"/><path d="M911.4,961.1c-4.7-1-9.7-3.3-14.4-1L911.4,961.1z"/><path d="M911.4,963c-0.1,0-0.3,0-0.4,0c-1-0.2-2-0.5-3-0.8c-3.6-1-7.1-1.9-10.2-0.4c-0.9,0.5-2.1,0.1-2.5-0.9c-0.5-0.9-0.1-2.1,0.9-2.5c4.4-2.1,8.9-0.9,12.9,0.2c1,0.3,1.9,0.5,2.8,0.7c1,0.2,1.7,1.2,1.4,2.3C913.1,962.4,912.3,963,911.4,963L911.4,963z"/><path d="M673.5,972.5c0.4-2.1,0.8-4.1,1.4-6.2L673.5,972.5z"/><path d="M673.5,975.7c-0.2,0-0.5,0-0.7-0.1c-1.7-0.4-2.8-2.1-2.5-3.8l0.3-1.5c0.3-1.6,0.7-3.2,1.1-4.8c0.4-1.7,2.2-2.7,3.9-2.3c1.7,0.4,2.7,2.2,2.3,3.9c-0.4,1.5-0.7,3-1,4.5l-0.3,1.5C676.3,974.7,675,975.7,673.5,975.7L673.5,975.7z"/><path d="M628.8,985.9c6.8,1.6,14,1.6,20.3-1.6L628.8,985.9z"/><path d="M637.3,990c-3,0-6.1-0.4-9.3-1.2c-1.6-0.4-2.6-2-2.2-3.6c0.4-1.6,2-2.6,3.6-2.2c4.8,1.2,11.9,1.9,18.3-1.4c1.5-0.8,3.3-0.2,4,1.3c0.8,1.5,0.2,3.3-1.3,4C646.6,989,642.1,990,637.3,990L637.3,990z"/><path d="M650.1,976.6c-0.4-2.1-0.8-4.1-1.4-6.2L650.1,976.6z"/><path d="M650.1,979.8c-1.5,0-2.8-1-3.1-2.5l-0.3-1.5c-0.3-1.5-0.6-3-1-4.5c-0.4-1.7,0.6-3.5,2.3-3.9c1.7-0.5,3.5,0.6,3.9,2.3c0.4,1.6,0.8,3.2,1.1,4.8l0.3,1.5c0.4,1.7-0.7,3.4-2.5,3.8C650.6,979.8,650.3,979.8,650.1,979.8L650.1,979.8z"/><path d="M279.1,958c-0.1-1.4-0.6-2.8-1-4.1L279.1,958z"/><path d="M279.1,960.3c-1.1,0-2.1-0.9-2.2-2c-0.1-1.1-0.5-2.2-0.9-3.6c-0.4-1.2,0.2-2.4,1.4-2.8c1.2-0.4,2.4,0.2,2.8,1.4c0.5,1.6,1,3.1,1.1,4.6c0.1,1.2-0.8,2.3-2,2.4C279.2,960.3,279.1,960.3,279.1,960.3L279.1,960.3z"/><path d="M65.5,962.2c1.2-1.5,1.1-5,0-8.3V962.2z"/><path d="M65.5,964.3c-0.5,0-0.9-0.1-1.3-0.5c-0.9-0.7-1.1-2-0.4-2.9c0.5-0.6,0.7-3-0.3-6.3c-0.4-1.1,0.3-2.3,1.4-2.6c1.1-0.3,2.3,0.3,2.6,1.4c0.5,1.6,2,7.2-0.3,10.2C66.8,964,66.1,964.3,65.5,964.3L65.5,964.3z"/><path d="M38.4,515c-1.2-0.6-2.5-1.6-3.8-2.7L38.4,515z"/><path d="M38.4,518.2c-0.4,0-0.9-0.1-1.3-0.3c-1.5-0.7-2.9-1.8-4.5-3c-1.4-1.1-1.6-3.1-0.5-4.4c1.1-1.4,3.1-1.6,4.4-0.5c1,0.8,2.3,1.8,3.2,2.3c1.6,0.7,2.3,2.6,1.5,4.2C40.7,517.5,39.6,518.2,38.4,518.2L38.4,518.2z"/><path d="M12.9,256.6c0.1-1.4,0.6-2.8,1-4.1L12.9,256.6z"/><path d="M12.9,259c-0.1,0-0.1,0-0.2,0c-1.3-0.1-2.3-1.3-2.2-2.6c0.1-1.6,0.6-3.1,1.1-4.7c0.4-1.3,1.8-2,3.1-1.5c1.3,0.4,1.9,1.8,1.5,3.1c-0.5,1.4-0.8,2.5-0.9,3.6C15.2,258,14.1,259,12.9,259L12.9,259z"/><path d="M13.9,248.3c-1.1-2.8-0.7-5.5,0-8.3V248.3z"/><path d="M13.9,250.7c-0.9,0-1.8-0.6-2.2-1.5c-1.4-3.5-0.8-6.9-0.1-9.7c0.3-1.3,1.6-2,2.9-1.7c1.3,0.3,2,1.6,1.7,2.9c-0.6,2.2-1,4.6-0.1,6.8c0.5,1.2-0.1,2.6-1.3,3C14.5,250.6,14.2,250.7,13.9,250.7L13.9,250.7z"/><path d="M401.1,25.5c0.6-2.8,0.6-5.5,0.7-8.3L401.1,25.5z"/><path d="M401.1,28.7c-0.2,0-0.5,0-0.7-0.1c-1.7-0.4-2.8-2.1-2.4-3.8c0.5-2,0.5-4.1,0.6-6.3l0-1.3c0.1-1.8,1.6-3.1,3.3-3.1c1.8,0.1,3.1,1.5,3.1,3.3l0,1.3c-0.1,2.4-0.1,5-0.7,7.6C403.9,27.7,402.6,28.7,401.1,28.7L401.1,28.7z"/><path d="M480.2,17.9c4-1.1,8.3-0.5,12.4-0.7L480.2,17.9z"/><path d="M480.2,21.1c-1.4,0-2.7-0.9-3.1-2.3c-0.5-1.7,0.5-3.4,2.2-3.9c3.2-0.9,6.4-0.8,9.4-0.8c1.2,0,2.5,0,3.7,0c1.8-0.1,3.2,1.3,3.3,3c0.1,1.8-1.3,3.2-3,3.3c-1.3,0.1-2.7,0-4,0c-2.7,0-5.3-0.1-7.6,0.6C480.8,21,480.5,21.1,480.2,21.1L480.2,21.1z"/><path d="M765.6,31.7c-0.5,1.4-0.9,2.7-1.4,4.1L765.6,31.7z"/><path d="M764.3,39.1c-0.3,0-0.7-0.1-1-0.2c-1.7-0.6-2.6-2.4-2.1-4.1l1.4-4.1c0.6-1.7,2.4-2.6,4.1-2.1c1.7,0.6,2.6,2.4,2.1,4.1l-1.4,4.1C766.9,38.2,765.6,39.1,764.3,39.1L764.3,39.1z"/><path d="M802.1,28.2c-4-0.9-8.4-1-12.4,0H802.1z"/><path d="M789.7,31.4c-1.4,0-2.7-1-3.1-2.4c-0.4-1.7,0.6-3.4,2.3-3.9c4.3-1.1,9.1-1.1,13.9,0c1.7,0.4,2.8,2.1,2.4,3.8c-0.4,1.7-2.1,2.8-3.8,2.4c-3.8-0.9-7.5-0.9-10.9,0C790.2,31.4,790,31.5,789.7,31.4L789.7,31.4z"/><path d="M170.7,39.2c-1.4,0.4-2.8,0.5-4.1,0.7L170.7,39.2z"/><path d="M166.6,43.1c-1.6,0-3-1.2-3.2-2.9c-0.2-1.8,1.1-3.3,2.8-3.5c1.4-0.2,2.5-0.3,3.6-0.6c1.7-0.5,3.5,0.5,3.9,2.2c0.5,1.7-0.5,3.5-2.2,3.9c-1.7,0.5-3.3,0.6-4.6,0.8C166.8,43.1,166.7,43.1,166.6,43.1L166.6,43.1z"/><path d="M370.9,464.9c0.7-0.5,1.4-1,2.1-1.4c2.1,0.3,4.1,1.1,6.2,1.4H370.9z"/><path d="M379.1,466.2c-0.1,0-0.1,0-0.2,0c-1.1-0.2-2.2-0.5-3.2-0.7c-0.9-0.2-1.7-0.5-2.5-0.6l-1.7,1.1c-0.5,0.4-1.3,0.2-1.7-0.3c-0.4-0.6-0.2-1.3,0.3-1.7l2.5-1.7l0.5,0.1c1.1,0.2,2.2,0.5,3.2,0.7c1,0.3,2,0.5,3,0.7c0.7,0.1,1.1,0.7,1,1.4C380.2,465.8,379.7,466.2,379.1,466.2L379.1,466.2z"/><path d="M769.1,559.9c-1.2,1.2-2.1,2.5-2.8,3.9c1.8,5.8,8.7,10.7,15.2,10.5L769.1,559.9z"/><path d="M781.2,575.9c-7,0-14.4-5.3-16.4-11.7l-0.2-0.6l0.3-0.6c0.8-1.6,1.8-3,3-4.3c0.6-0.6,1.6-0.6,2.2,0c0.6,0.6,0.6,1.6,0,2.2c-0.9,0.9-1.6,1.9-2.2,2.9c1.9,4.9,8,8.9,13.4,8.8c0,0,0,0,0,0c0.8,0,1.6,0.7,1.6,1.5c0,0.9-0.7,1.6-1.5,1.6C781.4,575.8,781.3,575.8,781.2,575.9L781.2,575.9z"/><path d="M309,258.6c-1.4-0.6-2.4-1.7-3.6-2.5c-0.3-2.4-0.3-3.9-0.5-5.7L309,258.6z"/><path d="M309,259.7c-0.1,0-0.3,0-0.4-0.1c-1.1-0.5-1.9-1.2-2.8-1.8c-0.4-0.3-0.7-0.6-1.1-0.8l-0.4-0.3l-0.1-0.5c-0.2-1.8-0.3-3.1-0.4-4.4l-0.1-1.4c0-0.6,0.4-1.1,1-1.2c0.6,0,1.1,0.4,1.2,1l0.1,1.4c0.1,1.1,0.1,2.3,0.3,3.8c0.3,0.2,0.5,0.4,0.8,0.6c0.7,0.6,1.4,1.1,2.3,1.5c0.6,0.2,0.8,0.9,0.6,1.5C309.8,259.5,309.4,259.7,309,259.7L309,259.7z"/><path d="M756.7,353.5c1.1-1.4,1.6-2.8,2.1-4.1L756.7,353.5z"/><path d="M756.7,354.9c-0.3,0-0.6-0.1-0.8-0.3c-0.6-0.5-0.6-1.3-0.2-1.9c0.9-1.2,1.4-2.3,1.8-3.7c0.2-0.7,1-1.1,1.7-0.8c0.7,0.2,1.1,1,0.8,1.7c-0.4,1.2-1,2.9-2.3,4.6C757.4,354.7,757,354.9,756.7,354.9L756.7,354.9z"/><path d="M228.5,836.3c-0.3-2.1,0.3-5.3,2.1-8.3L228.5,836.3z"/><path d="M228.5,837.5c-0.6,0-1.1-0.4-1.1-1c-0.4-2.5,0.5-6,2.2-9c0.3-0.6,1-0.7,1.6-0.4c0.6,0.3,0.7,1,0.4,1.6c-1.8,3.1-2.1,6-1.9,7.5c0.1,0.6-0.3,1.2-1,1.3C228.6,837.5,228.6,837.5,228.5,837.5L228.5,837.5z"/><path d="M141.9,951.9c4.6,1.4,9.9,1.6,14.4,0H141.9z"/><path d="M149.3,955.2c-2.7,0-5.5-0.4-8.1-1.2c-1.2-0.4-1.8-1.6-1.4-2.8c0.4-1.2,1.6-1.8,2.8-1.4c4.5,1.4,9.2,1.4,13,0c1.1-0.4,2.4,0.2,2.8,1.3c0.4,1.1-0.2,2.4-1.3,2.8C154.7,954.8,152,955.2,149.3,955.2L149.3,955.2z"/><path d="M393.6,959.1c2.2-1.5,6.3,0.1,7.2-3.1L393.6,959.1z"/><path d="M393.6,960.6c-0.5,0-1-0.2-1.3-0.7c-0.5-0.7-0.3-1.7,0.4-2.2c1.2-0.8,2.6-0.9,3.9-1.1c2-0.2,2.5-0.4,2.7-1.2c0.2-0.8,1.1-1.3,1.9-1.1c0.8,0.2,1.3,1.1,1.1,1.9c-0.9,3-3.6,3.2-5.4,3.4c-1,0.1-1.9,0.2-2.4,0.5C394.2,960.6,393.9,960.6,393.6,960.6L393.6,960.6z"/><path d="M533.9,987.6c5.6-1.8,16.2,2,16.5-6.9L533.9,987.6z"/><path d="M533.9,990.8c-1.3,0-2.6-0.8-3-2.2c-0.5-1.7,0.4-3.4,2-3.9c2.2-0.7,4.6-0.7,7-0.8c6.5-0.1,7.2-0.7,7.3-3.2c0.1-1.7,1.5-3,3.1-3c0,0,0.1,0,0.1,0c1.7,0.1,3.1,1.5,3,3.2c-0.3,9.1-8.6,9.2-13.5,9.3c-1.9,0-3.9,0-5.2,0.5C534.5,990.7,534.2,990.8,533.9,990.8L533.9,990.8z"/><path d="M11.9,139c0-1.4,0-2.8,0-4.1V139z"/><path d="M11.9,140.3c-0.7,0-1.3-0.6-1.3-1.3v-4.1c0-0.7,0.6-1.3,1.3-1.3c0.7,0,1.3,0.6,1.3,1.3v4.1C13.2,139.7,12.6,140.3,11.9,140.3z"/><path d="M12.9,188.5c0.1-13.1,0-26.1,0-39.2V188.5z"/><path d="M12.9,190.7C12.9,190.7,12.9,190.7,12.9,190.7c-1.2,0-2.2-1-2.2-2.2c0.1-9.5,0-19.1,0-28.5l0-10.7c0-1.2,1-2.2,2.2-2.2h0c1.2,0,2.2,1,2.2,2.2l0,10.7c0,9.3,0.1,19,0,28.5C15.1,189.7,14.1,190.7,12.9,190.7L12.9,190.7z"/><path d="M11.9,510.3c0.7-2.1,1.6-4.1,2.1-6.2L11.9,510.3z"/><path d="M11.9,511.5c-0.1,0-0.3,0-0.4-0.1c-0.6-0.2-0.9-0.9-0.7-1.5c0.2-0.5,0.4-1,0.6-1.5c0.6-1.6,1.1-3,1.5-4.5c0.1-0.6,0.7-1,1.4-0.9c0.6,0.1,1,0.7,0.9,1.4c-0.4,1.6-1,3.3-1.6,4.8c-0.2,0.5-0.4,1-0.5,1.5C12.8,511.2,12.4,511.5,11.9,511.5L11.9,511.5z"/><path d="M752.6,570.2c1.6,1.2,3.7,1.8,6.2,2.1L752.6,570.2z"/><path d="M758.8,573.5c0,0-0.1,0-0.1,0c-2.9-0.3-5.2-1.1-6.8-2.3c-0.5-0.4-0.6-1.2-0.2-1.7c0.4-0.5,1.2-0.6,1.7-0.2c1.3,1,3.1,1.6,5.6,1.8c0.7,0.1,1.2,0.7,1.1,1.4C759.9,573,759.4,573.5,758.8,573.5L758.8,573.5z"/></g>
</svg>